<?xml version="1.0" encoding="utf-8"?>
<!-- Generator: Adobe Illustrator 15.0.0, SVG Export Plug-In . SVG Version: 6.00 Build 0)  -->
<!DOCTYPE svg PUBLIC "-//W3C//DTD SVG 1.1//EN" "http://www.w3.org/Graphics/SVG/1.1/DTD/svg11.dtd">
<svg version="1.1" xmlns="http://www.w3.org/2000/svg" xmlns:xlink="http://www.w3.org/1999/xlink" x="0px" y="0px" width="960px"
	 height="640px" viewBox="0 0 960 640" enable-background="new 0 0 960 640" xml:space="preserve">
<g id="head_1_">
	<g id="Calque_7_xA0_Image_1_">
		
			<image overflow="visible" width="218" height="176" id="Calque_7_xA0_Image" xlink:href="5F22A4B5.png"  transform="matrix(1 0 0 1 369 451)">
		</image>
	</g>
	<g id="Calque_8_xA0_Image_1_">
		
			<image overflow="visible" width="218" height="176" id="Calque_8_xA0_Image" xlink:href="5F22A4B6.png"  transform="matrix(1 0 0 1 369 451)">
		</image>
	</g>
</g>
<g id="BLOOD_1_">
	<g id="Calque_3_xA0_Image_1_">
		
			<image overflow="visible" width="105" height="18" id="Calque_3_xA0_Image" xlink:href="5F22A4B4.png"  transform="matrix(1 0 0 1 410 490)">
		</image>
	</g>
	<g id="Calque_4_xA0_Image_1_">
		
			<image overflow="visible" width="162" height="34" id="Calque_4_xA0_Image" xlink:href="5F22A4D6.png"  transform="matrix(1 0 0 1 395 474)">
		</image>
	</g>
</g>
<g id="TOP_1_">
	<g id="Calque_5_copie_xA0_Image_1_">
		
			<image overflow="visible" width="186" height="51" id="Calque_5_copie_xA0_Image" xlink:href="5F22A4D7.png"  transform="matrix(1 0 0 1 385 204)">
		</image>
	</g>
</g>
<g id="hands_1_">
	<g id="Calque_1_xA0_Image_1_">
		
			<image overflow="visible" width="292" height="145" id="Calque_1_xA0_Image" xlink:href="5F22A4DA.png"  transform="matrix(1 0 0 1 331 78)">
		</image>
	</g>
	<g id="Objet_dynamique_vectoriel_xA0_Image_5_">
		
			<image overflow="visible" width="370" height="303" id="Objet_dynamique_vectoriel_xA0_Image_4_" xlink:href="5F22A4DB.png"  transform="matrix(1 0 0 1 292 195)">
		</image>
	</g>
	<g id="Objet_dynamique_vectoriel_copie_xA0_Image_1_">
		
			<image overflow="visible" width="372" height="303" id="Objet_dynamique_vectoriel_copie_xA0_Image" xlink:href="5F22A4DC.png"  transform="matrix(1 0 0 1 290 196)">
		</image>
	</g>
</g>
<g id="Objet_dynamique_vectoriel_xA0_Image_1_">
	
		<image overflow="visible" width="184" height="158" id="Objet_dynamique_vectoriel_xA0_Image" xlink:href="5F22A4DD.png"  transform="matrix(1 0 0 1 388 277)">
	</image>
</g>
</svg>
